<svg xmlns="http://www.w3.org/2000/svg" xmlns:xlink="http://www.w3.org/1999/xlink" version="1.1" data-diagram-type="SEQUENCE" style="width:1651px;height:1461px;background:#FFFFFF;" width="1651.5px" height="1461.6px" viewBox="0 0 1651 1461" zoomAndPan="magnify" preserveAspectRatio="none" contentStyleType="text/css"><?plantuml 1.2026.8?><defs/><g font-family="sans-serif" lengthAdjust="spacing"><g class="title" data-source-line="2"><text x="615" y="26.969" fill="#000" font-size="12.6" textLength="420.221" font-weight="700">RootCanal: How controller instances communicate with each other</text><text x="660.65" y="44.13" fill="#000" font-size="12.6" textLength="328.922" font-weight="700">(in-memory broadcast through the virtual PhyLayer)</text></g><g><title>HOST A</title><rect x="52.133" y="150.545" width="7.2" height="1213.206" fill="#000" fill-opacity="0"/><line x1="55.283" y1="150.545" x2="55.283" y2="1363.751" style="stroke:#181818;stroke-width:0.45;stroke-dasharray:4.5,4.5;"/></g><g><title>HOST B</title><rect x="165.443" y="150.545" width="7.2" height="1213.206" fill="#000" fill-opacity="0"/><line x1="168.593" y1="150.545" x2="168.593" y2="1363.751" style="stroke:#181818;stroke-width:0.45;stroke-dasharray:4.5,4.5;"/></g><g><title>CPP Ctrl A</title><rect x="329.514" y="150.545" width="7.2" height="1213.206" fill="#000" fill-opacity="0"/><line x1="332.664" y1="150.545" x2="332.664" y2="1363.751" style="stroke:#181818;stroke-width:0.45;stroke-dasharray:4.5,4.5;"/></g><g><title></title><rect x="328.164" y="372.369" width="9" height="991.381" fill="#FFF" style="stroke:#181818;stroke-width:0.9;"/></g><g><title>CPP Ctrl B</title><rect x="597.076" y="150.545" width="7.2" height="1213.206" fill="#000" fill-opacity="0"/><line x1="600.226" y1="150.545" x2="600.226" y2="1363.751" style="stroke:#181818;stroke-width:0.45;stroke-dasharray:4.5,4.5;"/></g><g><title></title><rect x="595.726" y="603.088" width="9" height="233.683" fill="#FFF" style="stroke:#181818;stroke-width:0.9;"/></g><g><title>PhyDevice A</title><rect x="818.131" y="150.545" width="7.2" height="1213.206" fill="#000" fill-opacity="0"/><line x1="821.281" y1="150.545" x2="821.281" y2="1363.751" style="stroke:#181818;stroke-width:0.45;stroke-dasharray:4.5,4.5;"/></g><g><title></title><rect x="816.781" y="473.011" width="9" height="108.742" fill="#FFF" style="stroke:#181818;stroke-width:0.9;"/></g><g><title>PhyDevice B</title><rect x="925.739" y="150.545" width="7.2" height="1213.206" fill="#000" fill-opacity="0"/><line x1="928.889" y1="150.545" x2="928.889" y2="1363.751" style="stroke:#181818;stroke-width:0.45;stroke-dasharray:4.5,4.5;"/></g><g><title></title><rect x="924.389" y="581.753" width="9" height="174.812" fill="#FFF" style="stroke:#181818;stroke-width:0.9;"/></g><g><title></title><rect x="928.889" y="687.794" width="9" height="68.771" fill="#FFF" style="stroke:#181818;stroke-width:0.9;"/></g><g><title>PhyLayer..BR_EDR</title><rect x="1270.372" y="150.545" width="7.2" height="1213.206" fill="#000" fill-opacity="0"/><line x1="1273.522" y1="150.545" x2="1273.522" y2="1363.751" style="stroke:#181818;stroke-width:0.45;stroke-dasharray:4.5,4.5;"/></g><g><title></title><rect x="1269.022" y="501.547" width="9" height="243.319" fill="#FFF" style="stroke:#181818;stroke-width:0.9;"/></g><g><title>Sniffer Device</title><rect x="1585.513" y="150.545" width="7.2" height="1213.206" fill="#000" fill-opacity="0"/><line x1="1588.663" y1="150.545" x2="1588.663" y2="1363.751" style="stroke:#181818;stroke-width:0.45;stroke-dasharray:4.5,4.5;"/></g><text x="30.37" y="129.692" fill="#000" font-size="12.6" textLength="44.427">HOST A</text><text x="9" y="146.853" fill="#000" font-size="12.6" textLength="87.166">(Central/client)</text><ellipse cx="55.283" cy="69.872" rx="7.2" ry="7.2" fill="#E2E2F0" style="stroke:#181818;stroke-width:0.45;"/><path d="M55.283,77.072 L55.283,101.372 M43.583,84.272 L66.983,84.272 M55.283,101.372 L43.583,114.872 M55.283,101.372 L66.983,114.872" style="stroke:#181818;stroke-width:0.45;" fill="none"/><text x="143.61" y="129.692" fill="#000" font-size="12.6" textLength="44.566">HOST B</text><text x="110.566" y="146.853" fill="#000" font-size="12.6" textLength="110.653">(Peripheral/server)</text><ellipse cx="168.593" cy="69.872" rx="7.2" ry="7.2" fill="#E2E2F0" style="stroke:#181818;stroke-width:0.45;"/><path d="M168.593,77.072 L168.593,101.372 M156.893,84.272 L180.293,84.272 M168.593,101.372 L156.893,114.872 M168.593,101.372 L180.293,114.872" style="stroke:#181818;stroke-width:0.45;" fill="none"/><text x="300.575" y="129.692" fill="#000" font-size="12.6" textLength="58.779">CPP Ctrl A</text><text x="289.55" y="146.853" fill="#000" font-size="12.6" textLength="80.829">(LeController)</text><ellipse cx="332.664" cy="101.822" rx="10.8" ry="10.8" fill="#E2E2F0" style="stroke:#181818;stroke-width:0.45;"/><polygon points="329.064,91.022,334.464,86.522,332.664,91.022,334.464,95.522,329.064,91.022" fill="#181818" style="stroke:#181818;stroke-width:0.9;stroke-linejoin:miter;stroke-miterlimit:10;"/><text x="568.068" y="129.692" fill="#000" font-size="12.6" textLength="58.917">CPP Ctrl B</text><text x="557.112" y="146.853" fill="#000" font-size="12.6" textLength="80.829">(LeController)</text><ellipse cx="600.226" cy="101.822" rx="10.8" ry="10.8" fill="#E2E2F0" style="stroke:#181818;stroke-width:0.45;"/><polygon points="596.626,91.022,602.026,86.522,600.226,91.022,602.026,95.522,596.626,91.022" fill="#181818" style="stroke:#181818;stroke-width:0.9;stroke-linejoin:miter;stroke-miterlimit:10;"/><text x="782.444" y="129.692" fill="#000" font-size="12.6" textLength="72.273">PhyDevice A</text><text x="795.586" y="146.853" fill="#000" font-size="12.6" textLength="45.99">(addr X)</text><ellipse cx="821.281" cy="101.822" rx="10.8" ry="10.8" fill="#E2E2F0" style="stroke:#181818;stroke-width:0.45;"/><line x1="810.481" y1="114.422" x2="832.081" y2="114.422" style="stroke:#181818;stroke-width:0.45;"/><text x="889.983" y="129.692" fill="#000" font-size="12.6" textLength="72.412">PhyDevice B</text><text x="903.32" y="146.853" fill="#000" font-size="12.6" textLength="45.738">(addr Y)</text><ellipse cx="928.889" cy="101.822" rx="10.8" ry="10.8" fill="#E2E2F0" style="stroke:#181818;stroke-width:0.45;"/><line x1="918.089" y1="114.422" x2="939.689" y2="114.422" style="stroke:#181818;stroke-width:0.45;"/><text x="1217.492" y="129.692" fill="#000" font-size="12.6" textLength="106.659">PhyLayer::BR_EDR</text><text x="1195.6" y="146.853" fill="#000" font-size="12.6" textLength="150.443">/ PhyLayer::LOW_ENERGY</text><ellipse cx="1273.522" cy="101.822" rx="10.8" ry="10.8" fill="#E2E2F0" style="stroke:#181818;stroke-width:0.45;"/><line x1="1262.722" y1="114.422" x2="1284.322" y2="114.422" style="stroke:#181818;stroke-width:0.45;"/><text x="1545.303" y="129.692" fill="#000" font-size="12.6" textLength="81.32">Sniffer Device</text><text x="1535.204" y="146.853" fill="#000" font-size="12.6" textLength="101.518">(optional, in PHY)</text><ellipse cx="1588.663" cy="101.822" rx="10.8" ry="10.8" fill="#E2E2F0" style="stroke:#181818;stroke-width:0.45;"/><line x1="1577.863" y1="114.422" x2="1599.463" y2="114.422" style="stroke:#181818;stroke-width:0.45;"/><text x="30.37" y="1377.22" fill="#000" font-size="12.6" textLength="44.427">HOST A</text><text x="9" y="1394.381" fill="#000" font-size="12.6" textLength="87.166">(Central/client)</text><ellipse cx="55.283" cy="1405.723" rx="7.2" ry="7.2" fill="#E2E2F0" style="stroke:#181818;stroke-width:0.45;"/><path d="M55.283,1412.923 L55.283,1437.223 M43.583,1420.123 L66.983,1420.123 M55.283,1437.223 L43.583,1450.723 M55.283,1437.223 L66.983,1450.723" style="stroke:#181818;stroke-width:0.45;" fill="none"/><text x="143.61" y="1377.22" fill="#000" font-size="12.6" textLength="44.566">HOST B</text><text x="110.566" y="1394.381" fill="#000" font-size="12.6" textLength="110.653">(Peripheral/server)</text><ellipse cx="168.593" cy="1405.723" rx="7.2" ry="7.2" fill="#E2E2F0" style="stroke:#181818;stroke-width:0.45;"/><path d="M168.593,1412.923 L168.593,1437.223 M156.893,1420.123 L180.293,1420.123 M168.593,1437.223 L156.893,1450.723 M168.593,1437.223 L180.293,1450.723" style="stroke:#181818;stroke-width:0.45;" fill="none"/><text x="300.575" y="1377.22" fill="#000" font-size="12.6" textLength="58.779">CPP Ctrl A</text><text x="289.55" y="1394.381" fill="#000" font-size="12.6" textLength="80.829">(LeController)</text><ellipse cx="332.664" cy="1412.473" rx="10.8" ry="10.8" fill="#E2E2F0" style="stroke:#181818;stroke-width:0.45;"/><polygon points="329.064,1401.673,334.464,1397.173,332.664,1401.673,334.464,1406.173,329.064,1401.673" fill="#181818" style="stroke:#181818;stroke-width:0.9;stroke-linejoin:miter;stroke-miterlimit:10;"/><text x="568.068" y="1377.22" fill="#000" font-size="12.6" textLength="58.917">CPP Ctrl B</text><text x="557.112" y="1394.381" fill="#000" font-size="12.6" textLength="80.829">(LeController)</text><ellipse cx="600.226" cy="1412.473" rx="10.8" ry="10.8" fill="#E2E2F0" style="stroke:#181818;stroke-width:0.45;"/><polygon points="596.626,1401.673,602.026,1397.173,600.226,1401.673,602.026,1406.173,596.626,1401.673" fill="#181818" style="stroke:#181818;stroke-width:0.9;stroke-linejoin:miter;stroke-miterlimit:10;"/><text x="782.444" y="1377.22" fill="#000" font-size="12.6" textLength="72.273">PhyDevice A</text><text x="795.586" y="1394.381" fill="#000" font-size="12.6" textLength="45.99">(addr X)</text><ellipse cx="821.281" cy="1412.473" rx="10.8" ry="10.8" fill="#E2E2F0" style="stroke:#181818;stroke-width:0.45;"/><line x1="810.481" y1="1425.073" x2="832.081" y2="1425.073" style="stroke:#181818;stroke-width:0.45;"/><text x="889.983" y="1377.22" fill="#000" font-size="12.6" textLength="72.412">PhyDevice B</text><text x="903.32" y="1394.381" fill="#000" font-size="12.6" textLength="45.738">(addr Y)</text><ellipse cx="928.889" cy="1412.473" rx="10.8" ry="10.8" fill="#E2E2F0" style="stroke:#181818;stroke-width:0.45;"/><line x1="918.089" y1="1425.073" x2="939.689" y2="1425.073" style="stroke:#181818;stroke-width:0.45;"/><text x="1217.492" y="1377.22" fill="#000" font-size="12.6" textLength="106.659">PhyLayer::BR_EDR</text><text x="1195.6" y="1394.381" fill="#000" font-size="12.6" textLength="150.443">/ PhyLayer::LOW_ENERGY</text><ellipse cx="1273.522" cy="1412.473" rx="10.8" ry="10.8" fill="#E2E2F0" style="stroke:#181818;stroke-width:0.45;"/><line x1="1262.722" y1="1425.073" x2="1284.322" y2="1425.073" style="stroke:#181818;stroke-width:0.45;"/><text x="1545.303" y="1377.22" fill="#000" font-size="12.6" textLength="81.32">Sniffer Device</text><text x="1535.204" y="1394.381" fill="#000" font-size="12.6" textLength="101.518">(optional, in PHY)</text><ellipse cx="1588.663" cy="1412.473" rx="10.8" ry="10.8" fill="#E2E2F0" style="stroke:#181818;stroke-width:0.45;"/><line x1="1577.863" y1="1425.073" x2="1599.463" y2="1425.073" style="stroke:#181818;stroke-width:0.45;"/><path d="M1278.022,162.245 L1278.022,345.845 L1578.622,345.845 L1578.622,171.245 L1569.622,162.245 L1278.022,162.245" style="stroke:#181818;stroke-width:0.45;" fill="#FEFFDD"/><path d="M1569.622,162.245 L1569.622,171.245 L1578.622,171.245 L1569.622,162.245" style="stroke:#181818;stroke-width:0.45;" fill="#FEFFDD"/><text x="1283.422" y="179.252" fill="#000" font-size="11.7" textLength="253.949">PhyLayer holds a list of PhyDevice shared_ptrs</text><text x="1283.422" y="195.187" fill="#000" font-size="11.7" textLength="263.227">registered on it. Two default phys are created in</text><text x="1283.422" y="211.123" fill="#000" font-size="11.7" textLength="281.76">SetUpTestChannel(): "BR_EDR" and "LOW_ENERGY".</text><text x="1283.422" y="227.058" fill="#000" font-size="11.7" textLength="277.782">A device/controller can be on several phys at once.</text><text x="1283.422" y="242.993" fill="#000" font-size="11.7"> </text><text x="1283.422" y="258.929" fill="#000" font-size="11.7" textLength="266.526">PhyLayer::Send() broadcasts the packet to EVERY</text><text x="1283.422" y="274.864" fill="#000" font-size="11.7" textLength="233.965">device except the sender (so all "listeners",</text><text x="1283.422" y="290.8" fill="#000" font-size="11.7" textLength="136.644">including sniffers, see it).</text><text x="1283.422" y="306.735" fill="#000" font-size="11.7"> </text><text x="1283.422" y="322.671" fill="#000" font-size="11.7" textLength="228.677">RSSI between two devices is fabricated by</text><text x="1283.422" y="338.606" fill="#000" font-size="11.7" textLength="221.271">ComputeRssi() (no geometry by default).</text><polygon points="317.364,368.769,326.364,372.369,317.364,375.969,320.964,372.369" fill="#181818" style="stroke:#181818;stroke-width:0.9;stroke-linejoin:miter;stroke-miterlimit:10;"/><line x1="55.283" y1="372.369" x2="322.764" y2="372.369" style="stroke:#181818;stroke-width:0.9;"/><text x="61.583" y="367.141" fill="#000" font-size="11.7" textLength="251.281">HCI_LE_Create_Connection (over HCI channel)</text><line x1="337.164" y1="416.84" x2="374.964" y2="416.84" style="stroke:#181818;stroke-width:0.9;"/><line x1="374.964" y1="416.84" x2="374.964" y2="428.54" style="stroke:#181818;stroke-width:0.9;"/><line x1="338.064" y1="428.54" x2="374.964" y2="428.54" style="stroke:#181818;stroke-width:0.9;"/><polygon points="347.064,424.94,338.064,428.54,347.064,432.14,343.464,428.54" fill="#181818" style="stroke:#181818;stroke-width:0.9;stroke-linejoin:miter;stroke-miterlimit:10;"/><text x="343.464" y="395.677" fill="#000" font-size="11.7" textLength="224.804">HandleCommand -> LeCreateConnection</text><text x="343.464" y="411.612" fill="#000" font-size="11.7" textLength="209.594">(allocate ACL handle, remember state)</text><polygon points="805.981,469.411,814.981,473.011,805.981,476.611,809.581,473.011" fill="#181818" style="stroke:#181818;stroke-width:0.9;stroke-linejoin:miter;stroke-miterlimit:10;"/><line x1="337.164" y1="473.011" x2="811.381" y2="473.011" style="stroke:#181818;stroke-width:0.9;"/><text x="343.464" y="451.848" fill="#000" font-size="11.7" textLength="249.514">SendLinkLayerPacket(LeConnect{src:X, dst:Y})</text><text x="352.59" y="467.783" fill="#000" font-size="11.7" textLength="273.909">-> PhyDevice::Send(data, LOW_ENERGY, tx_power)</text><polygon points="1258.222,497.947,1267.222,501.547,1258.222,505.147,1261.822,501.547" fill="#181818" style="stroke:#181818;stroke-width:0.9;stroke-linejoin:miter;stroke-miterlimit:10;"/><line x1="825.781" y1="501.547" x2="1263.622" y2="501.547" style="stroke:#181818;stroke-width:0.9;"/><text x="832.081" y="496.318" fill="#000" font-size="11.7" textLength="280.812">PhyLayer::Send(packet, tx_power, sender_id=idevA)</text><polygon points="938.789,542.417,929.789,546.017,938.789,549.617,935.189,546.017" fill="#181818" style="stroke:#181818;stroke-width:0.9;stroke-linejoin:miter;stroke-miterlimit:10;"/><line x1="933.389" y1="546.017" x2="1268.122" y2="546.017" style="stroke:#181818;stroke-width:0.9;"/><text x="944.189" y="524.854" fill="#000" font-size="11.7" textLength="255.06">PhyDevice::Receive(packet, LOW_ENERGY, rssi)</text><text x="953.315" y="540.789" fill="#000" font-size="11.7" textLength="309.407">(PhyDevice::Receive -> device_->ReceiveLinkLayerPacket)</text><polygon points="1577.863,570.953,1586.863,574.553,1577.863,578.153,1581.463,574.553" fill="#181818" style="stroke:#181818;stroke-width:0.9;stroke-linejoin:miter;stroke-miterlimit:10;"/><line x1="1278.022" y1="574.553" x2="1583.263" y2="574.553" style="stroke:#181818;stroke-width:0.9;"/><text x="1284.322" y="569.325" fill="#000" font-size="11.7" textLength="293.542">(optional) Sniffer::ReceiveLinkLayerPacket -> INFO log</text><polygon points="614.626,599.488,605.626,603.088,614.626,606.688,611.026,603.088" fill="#181818" style="stroke:#181818;stroke-width:0.9;stroke-linejoin:miter;stroke-miterlimit:10;"/><line x1="609.226" y1="603.088" x2="923.489" y2="603.088" style="stroke:#181818;stroke-width:0.9;"/><text x="620.026" y="597.86" fill="#000" font-size="11.7" textLength="264.303">CTRL_B.ReceiveLinkLayerPacket(LeConnect, rssi)</text><line x1="604.726" y1="647.559" x2="642.526" y2="647.559" style="stroke:#181818;stroke-width:0.9;"/><line x1="642.526" y1="647.559" x2="642.526" y2="659.259" style="stroke:#181818;stroke-width:0.9;"/><line x1="605.626" y1="659.259" x2="642.526" y2="659.259" style="stroke:#181818;stroke-width:0.9;"/><polygon points="614.626,655.659,605.626,659.259,614.626,662.859,611.026,659.259" fill="#181818" style="stroke:#181818;stroke-width:0.9;stroke-linejoin:miter;stroke-miterlimit:10;"/><text x="611.026" y="626.396" fill="#000" font-size="11.7" textLength="203.955">Handle as incoming connect request,</text><text x="611.026" y="642.331" fill="#000" font-size="11.7" textLength="132.198">prepare response, then:</text><polygon points="918.089,684.194,927.089,687.794,918.089,691.394,921.689,687.794" fill="#181818" style="stroke:#181818;stroke-width:0.9;stroke-linejoin:miter;stroke-miterlimit:10;"/><line x1="604.726" y1="687.794" x2="923.489" y2="687.794" style="stroke:#181818;stroke-width:0.9;"/><text x="611.026" y="682.566" fill="#000" font-size="11.7" textLength="302.562">SendLinkLayerPacket(LeConnectComplete{src:Y, dst:X})</text><polygon points="1258.222,712.73,1267.222,716.33,1258.222,719.93,1261.822,716.33" fill="#181818" style="stroke:#181818;stroke-width:0.9;stroke-linejoin:miter;stroke-miterlimit:10;"/><line x1="937.889" y1="716.33" x2="1263.622" y2="716.33" style="stroke:#181818;stroke-width:0.9;"/><text x="944.189" y="711.102" fill="#000" font-size="11.7" textLength="218.112">PhyLayer::Send(...)  (back the other way)</text><polygon points="831.181,741.265,822.181,744.865,831.181,748.465,827.581,744.865" fill="#181818" style="stroke:#181818;stroke-width:0.9;stroke-linejoin:miter;stroke-miterlimit:10;"/><line x1="825.781" y1="744.865" x2="1268.122" y2="744.865" style="stroke:#181818;stroke-width:0.9;"/><text x="836.581" y="739.637" fill="#000" font-size="11.7" textLength="269.767">PhyDevice::Receive -> CA.ReceiveLinkLayerPacket</text><line x1="337.164" y1="789.336" x2="374.964" y2="789.336" style="stroke:#181818;stroke-width:0.9;"/><line x1="374.964" y1="789.336" x2="374.964" y2="801.036" style="stroke:#181818;stroke-width:0.9;"/><line x1="338.064" y1="801.036" x2="374.964" y2="801.036" style="stroke:#181818;stroke-width:0.9;"/><polygon points="347.064,797.436,338.064,801.036,347.064,804.636,343.464,801.036" fill="#181818" style="stroke:#181818;stroke-width:0.9;stroke-linejoin:miter;stroke-miterlimit:10;"/><text x="343.464" y="768.173" fill="#000" font-size="11.7" textLength="128.981">HandleCon/SetupLeAcl,</text><text x="343.464" y="784.108" fill="#000" font-size="11.7" textLength="250.462">emit HCI_LE_Connection_Complete to HOST A</text><polygon points="65.183,825.972,56.183,829.572,65.183,833.172,61.583,829.572" fill="#181818" style="stroke:#181818;stroke-width:0.9;stroke-linejoin:miter;stroke-miterlimit:10;"/><line x1="59.783" y1="829.572" x2="327.264" y2="829.572" style="stroke:#181818;stroke-width:0.9;"/><text x="70.583" y="824.343" fill="#000" font-size="11.7" textLength="53.668">HCI event</text><rect x="9" y="856.439" width="1633.122" height="2.7" fill="#EEE" style="stroke:#EEE;stroke-width:0.9;"/><line x1="9" y1="856.439" x2="1642.122" y2="856.439" style="stroke:#000;stroke-width:0.9;"/><line x1="9" y1="859.139" x2="1642.122" y2="859.139" style="stroke:#000;stroke-width:0.9;"/><rect x="681.025" y="845.772" width="289.071" height="23.135" fill="#EEE" style="stroke:#000;stroke-width:1.8;"/><text x="686.425" y="861.879" fill="#000" font-size="11.7" textLength="273.429" font-weight="700">Once the two controllers have a direct ACL link</text><path d="M341.664,882.407 L341.664,986.807 L680.064,986.807 L680.064,891.407 L671.064,882.407 L341.664,882.407" style="stroke:#181818;stroke-width:0.45;" fill="#FEFFDD"/><path d="M671.064,882.407 L671.064,891.407 L680.064,891.407 L671.064,882.407" style="stroke:#181818;stroke-width:0.45;" fill="#FEFFDD"/><text x="347.064" y="899.414" fill="#000" font-size="11.7" textLength="310.46">For BLE, an established ACL connection between the two</text><text x="347.064" y="915.35" fill="#000" font-size="11.7" textLength="280.063">controllers is emulated at the PhyLayer level by the</text><text x="347.064" y="931.285" fill="#000" font-size="11.7" textLength="298.034">LLCP packets (the Rust link layer's LLCP state machine,</text><text x="347.064" y="947.221" fill="#000" font-size="11.7" textLength="319.715">e.g. LL_VERSION_IND / LL_FEATURE_REQ etc.), and the ACL</text><text x="347.064" y="963.156" fill="#000" font-size="11.7" textLength="297.578">data frames sent by the hosts ride along as "ACL" type</text><text x="347.064" y="979.091" fill="#000" font-size="11.7" textLength="97.765">link layer packets.</text><polygon points="317.364,1009.255,326.364,1012.855,317.364,1016.455,320.964,1012.855" fill="#181818" style="stroke:#181818;stroke-width:0.9;stroke-linejoin:miter;stroke-miterlimit:10;"/><line x1="55.283" y1="1012.855" x2="322.764" y2="1012.855" style="stroke:#181818;stroke-width:0.9;"/><text x="61.583" y="1007.627" fill="#000" font-size="11.7" textLength="164.21">ACL data (from host A's client)</text><polygon points="810.481,1037.79,819.481,1041.39,810.481,1044.99,814.081,1041.39" fill="#181818" style="stroke:#181818;stroke-width:0.9;stroke-linejoin:miter;stroke-miterlimit:10;"/><line x1="337.164" y1="1041.39" x2="815.881" y2="1041.39" style="stroke:#181818;stroke-width:0.9;"/><text x="343.464" y="1036.162" fill="#000" font-size="11.7" textLength="277.676">SendLinkLayerPacket(Acl{src:X, dst:Y, acl_payload})</text><polygon points="1262.722,1066.326,1271.722,1069.926,1262.722,1073.526,1266.322,1069.926" fill="#181818" style="stroke:#181818;stroke-width:0.9;stroke-linejoin:miter;stroke-miterlimit:10;"/><line x1="821.281" y1="1069.926" x2="1268.122" y2="1069.926" style="stroke:#181818;stroke-width:0.9;"/><text x="827.581" y="1064.698" fill="#000" font-size="11.7" textLength="169.814">PhyLayer::Send (LOW_ENERGY)</text><polygon points="938.789,1094.861,929.789,1098.461,938.789,1102.061,935.189,1098.461" fill="#181818" style="stroke:#181818;stroke-width:0.9;stroke-linejoin:miter;stroke-miterlimit:10;"/><line x1="933.389" y1="1098.461" x2="1272.622" y2="1098.461" style="stroke:#181818;stroke-width:0.9;"/><text x="944.189" y="1093.233" fill="#000" font-size="11.7" textLength="207.032">Receive -> CB.ReceiveLinkLayerPacket</text><polygon points="178.493,1123.397,169.493,1126.997,178.493,1130.597,174.893,1126.997" fill="#181818" style="stroke:#181818;stroke-width:0.9;stroke-linejoin:miter;stroke-miterlimit:10;"/><line x1="173.093" y1="1126.997" x2="599.326" y2="1126.997" style="stroke:#181818;stroke-width:0.9;"/><text x="183.893" y="1121.768" fill="#000" font-size="11.7" textLength="214.567">HandleAcl -> sends ACL data to HOST B</text><path d="M341.664,1138.697 L341.664,1210.697 L704.364,1210.697 L704.364,1147.697 L695.364,1138.697 L341.664,1138.697" style="stroke:#181818;stroke-width:0.45;" fill="#FEFFDD"/><path d="M695.364,1138.697 L695.364,1147.697 L704.364,1147.697 L695.364,1138.697" style="stroke:#181818;stroke-width:0.45;" fill="#FEFFDD"/><text x="347.064" y="1155.704" fill="#000" font-size="11.7" textLength="329.004">On the BR/EDR PhyLayer, controllers exchange LMP packets</text><text x="347.064" y="1171.639" fill="#000" font-size="11.7" textLength="344.121">(PAGE, PAGE_RESPONSE, LMP procedures) — these are shaped</text><text x="347.064" y="1187.575" fill="#000" font-size="11.7" textLength="311.232">by the Rust LinkManager (rust/src/lmp) and reach the air</text><text x="347.064" y="1203.51" fill="#000" font-size="11.7" textLength="303.475">via the same PhyDevice -> PhyLayer -> broadcast route.</text><rect x="9" y="1235.606" width="1633.122" height="2.7" fill="#EEE" style="stroke:#EEE;stroke-width:0.9;"/><line x1="9" y1="1235.606" x2="1642.122" y2="1235.606" style="stroke:#000;stroke-width:0.9;"/><line x1="9" y1="1238.306" x2="1642.122" y2="1238.306" style="stroke:#000;stroke-width:0.9;"/><rect x="691.035" y="1224.938" width="269.052" height="23.135" fill="#EEE" style="stroke:#000;stroke-width:1.8;"/><text x="696.435" y="1241.045" fill="#000" font-size="11.7" textLength="253.41" font-weight="700">A packet is always broadcast, never unicast</text><path d="M1278.022,1261.574 L1278.022,1349.774 L1591.222,1349.774 L1591.222,1270.574 L1582.222,1261.574 L1278.022,1261.574" style="stroke:#181818;stroke-width:0.45;" fill="#FEFFDD"/><path d="M1582.222,1261.574 L1582.222,1270.574 L1591.222,1270.574 L1582.222,1261.574" style="stroke:#181818;stroke-width:0.45;" fill="#FEFFDD"/><text x="1283.422" y="1278.581" fill="#000" font-size="11.7" textLength="275.524">There is no direct socket between controller A and</text><text x="1283.422" y="1294.516" fill="#000" font-size="11.7" textLength="271.51">controller B. Sending a link-layer packet from one</text><text x="1283.422" y="1310.452" fill="#000" font-size="11.7" textLength="294.676">controller simply calls into the shared PhyLayer which</text><text x="1283.422" y="1326.387" fill="#000" font-size="11.7" textLength="270.188">iterates its device list and delivers a copy to every</text><text x="1283.422" y="1342.323" fill="#000" font-size="11.7" textLength="245.162">registered PhyDevice (except the originator).</text><?plantuml-src hLVRRY9747sVhwZmieo4SLw3v9KOp2wMY4t0krbBbb1xfe3MDjsJxiPU5AsKZyWNvajokcTW1Y-RF2IMV9kfggxBEQUB7qehrbj1EySVsNgP2tMp8gCJBxrYwioDyIEXXHhGnBnGRhItHYcs9BNpGkViy72xtMcuUgONwJV48j-GyHksZxehzSMMjyRkwSaQKUJ2UV8RQtRh3NupFKlhTqBHRBEVYZtRj9CuPC7qO_-d97b35__v2q5c8jGcIw6z-tzYYjmRIvt9tUAUXYXpnEYCK9UvalWhxP1mD1cUc6Kmcx6L9He3IyVsEPGRBREaRYrrHhCPZRnLCUoKHyUMLwQZuHdJxBnfbY0NwVVKGNUl-Ldc7AEAeh3qgJAQNG_FM6K7guU3rKciEAd189ilnzVpHtr9pRFftQ_ByUru_lwXSfmy71qNMgvMW4vr1aumfPS6uEe1JS6oEcjnU_CkIRG1dAnSRpoPLGn3nrDeOrJXI92IhdfzJDnjXELYMNhhu61v3Gl64s2QfE_J_OkXWbTYfpoLcps2MARSCi1R80luBDX_AE_P-T56QCsgcmweKrMAz7H1dLQ9VJWC4J2SVTbYHouqFN4urF5p67Tz6B85P_f9gvZ1OC6wwAODFrmaHYdopmok61f_7Cz3-TKnn5zoBdsqSV34QLrdI2W08lI3DLlNwS5Uwbpj2gdNvAhEknuy67r8OmRpnU86MVeNPaq-DYOSu4WwMead6obTqDCUjYEpBNUUvyv9fDhLXjPijkm3h_U7ZY8i4g8mkYIP3EdYBU0AvHZTBAVZvIXsUGcKQix3uAbhq9lmclAgrsaWZ7mEIWASZve8wBi2lhVRC00y1DXZj2PO0AnI9ghGS3IbJNJf0GAGdoSS0xdodDP1WVe1XRvFfVuSnp2BxQvO54B-xcm--DIZmld1mzVqKHD5nmFIwh4LmeiUDOZeaV-oBCqBEDZK4ZY6x-W_UHYy7dqrwSQpLyzrAOihYPaCsw5012XOewKheI_CpYTuKHMM3Tf9pZbd-Sp7CzgPMWopAgpxhKS8Lk5XUV6sVlQgMUdXqC3O0Htfd5BDz6EmLux1v-RstHqfiquAFkbJksiPkfP53A2eqVrykipwvoCsSwlBQW4fIqR781MGWig076ORk95NVW3ARpkmllUeIyjba0NBhZJQ0KJWcXxKOMA7_n4wWIkAFKS8FLGG-lGrFLlPEJpq-_qKCtb2sCZoU9NIYzYdpPI7vwPSqUKxBJfjT7RoBq3rwkqPykbBIEEkdF8mL-WIRwK_Klj8m-MX-21SrUrOXvfKIa3GGtsI30QKN5tH7OGnbXkKg95I1oQZCa65j65CWTiAbT7LrUjB0f91z0xtRJOTzo3LX76A9sZY1YeM_F96UewoLnq8n_QH443UxbIKFr59xV7kKIX01T73KxXDfwDPhTMEki5olWCjOuegEBnnbKtK7zfYDvAQWpnpVzt7goNKVN5pTxkykRsco_3WtNXu_s4-Nix7ln3xl9_suhqJOgEAS150T6XbnHPQ3QdmTJQu5iFbOQ4Pk0uCi0sST-3I8RylGx9DLeUKpojsQ5OyfBkoPXlZqX25rDlDluae078YdyW_LyjIx1LK2qJulXPIjn6ez4JJsX3_dWhK39qSYOv4meCWfwufwe3CB2XfDh_4pOvsO7755enX_TpCixsenh660t_6FhncUmvyTnMWwfY7qdedsCBrZRjfpUs3aY31m_T0RVY9mIzcTxSB_1jjhCcvs46DKlhhZp_32OxZte9bf-G2plNyNwT8NOidbnZ5fTgMQKIHZTjvi1RImlLPYcgL09fQUrHrrLM8nz_DVOE6U6wZ1jGT7fOLy4Oe29Lh77gammP4yHC2_B-bRRNRtKFZE0J0Qb5JtPaOz43Lrder3AMSS9QoVeHYK7GHSNxHnZb571lDfqvEGgpssDQK2ZS2W15R4NV8flwNZSmtOP_29WaEmnBGg9Unk866lXQi04WRjjBSbFi0ib3t_dGBRHhSRQrn1hsGMk2ZGdk3-Xi0?></g></svg>