<svg xmlns="http://www.w3.org/2000/svg" xmlns:xlink="http://www.w3.org/1999/xlink" version="1.1" data-diagram-type="SEQUENCE" style="width:1665px;height:1809px;background:#FFFFFF;" width="1665px" height="1809px" viewBox="0 0 1665 1809" zoomAndPan="magnify" preserveAspectRatio="none" contentStyleType="text/css"><?plantuml 1.2026.8?><defs/><g font-family="sans-serif" lengthAdjust="spacing"><g class="title" data-source-line="2"><text x="611.773" y="26.969" fill="#000" font-size="12.6" textLength="440.545" font-weight="700">RootCanal: How C++ communicates with the Rust modules (FFI bridge)</text><text x="615.042" y="44.13" fill="#000" font-size="12.6" textLength="434.005" font-weight="700">model/controller/ffi.h|.cc  +  rust/src/ffi.rs  +  ControllerOps callbacks</text></g><g><title>HCI Host</title><rect x="41.259" y="150.545" width="7.2" height="1145.071" fill="#000" fill-opacity="0"/><line x1="44.409" y1="150.545" x2="44.409" y2="1295.615" style="stroke:#181818;stroke-width:0.45;stroke-dasharray:4.5,4.5;"/></g><line x1="44.409" y1="1295.615" x2="44.409" y2="1320.815" style="stroke:#181818;stroke-width:0.45;stroke-dasharray:0.9,3.6;"/><g><title>HCI Host</title><rect x="41.259" y="1320.815" width="7.2" height="390.231" fill="#000" fill-opacity="0"/><line x1="44.409" y1="1320.815" x2="44.409" y2="1711.046" style="stroke:#181818;stroke-width:0.45;stroke-dasharray:4.5,4.5;"/></g><g><title>HCI Socket</title><rect x="227.373" y="150.545" width="7.2" height="1145.071" fill="#000" fill-opacity="0"/><line x1="230.523" y1="150.545" x2="230.523" y2="1295.615" style="stroke:#181818;stroke-width:0.45;stroke-dasharray:4.5,4.5;"/></g><line x1="230.523" y1="1295.615" x2="230.523" y2="1320.815" style="stroke:#181818;stroke-width:0.45;stroke-dasharray:0.9,3.6;"/><g><title>HCI Socket</title><rect x="227.373" y="1320.815" width="7.2" height="390.231" fill="#000" fill-opacity="0"/><line x1="230.523" y1="1320.815" x2="230.523" y2="1711.046" style="stroke:#181818;stroke-width:0.45;stroke-dasharray:4.5,4.5;"/></g><g><title>CPP. DualModeController</title><rect x="525.031" y="150.545" width="7.2" height="1145.071" fill="#000" fill-opacity="0"/><line x1="528.181" y1="150.545" x2="528.181" y2="1295.615" style="stroke:#181818;stroke-width:0.45;stroke-dasharray:4.5,4.5;"/></g><line x1="528.181" y1="1295.615" x2="528.181" y2="1320.815" style="stroke:#181818;stroke-width:0.45;stroke-dasharray:0.9,3.6;"/><g><title>CPP. DualModeController</title><rect x="525.031" y="1320.815" width="7.2" height="390.231" fill="#000" fill-opacity="0"/><line x1="528.181" y1="1320.815" x2="528.181" y2="1711.046" style="stroke:#181818;stroke-width:0.45;stroke-dasharray:4.5,4.5;"/></g><g><title></title><rect x="523.681" y="410.169" width="9" height="742.769" fill="#FFF" style="stroke:#181818;stroke-width:0.9;"/></g><g><title>CPP. ControllerOps</title><rect x="846.787" y="150.545" width="7.2" height="1145.071" fill="#000" fill-opacity="0"/><line x1="849.937" y1="150.545" x2="849.937" y2="1295.615" style="stroke:#181818;stroke-width:0.45;stroke-dasharray:4.5,4.5;"/></g><line x1="849.937" y1="1295.615" x2="849.937" y2="1320.815" style="stroke:#181818;stroke-width:0.45;stroke-dasharray:0.9,3.6;"/><g><title>CPP. ControllerOps</title><rect x="846.787" y="1320.815" width="7.2" height="390.231" fill="#000" fill-opacity="0"/><line x1="849.937" y1="1320.815" x2="849.937" y2="1711.046" style="stroke:#181818;stroke-width:0.45;stroke-dasharray:4.5,4.5;"/></g><g><title></title><rect x="845.437" y="510.811" width="9" height="597.656" fill="#FFF" style="stroke:#181818;stroke-width:0.9;"/></g><g><title>RUST. LinkManager</title><rect x="1132.81" y="150.545" width="7.2" height="1145.071" fill="#000" fill-opacity="0"/><line x1="1135.96" y1="150.545" x2="1135.96" y2="1295.615" style="stroke:#181818;stroke-width:0.45;stroke-dasharray:4.5,4.5;"/></g><line x1="1135.96" y1="1295.615" x2="1135.96" y2="1320.815" style="stroke:#181818;stroke-width:0.45;stroke-dasharray:0.9,3.6;"/><g><title>RUST. LinkManager</title><rect x="1132.81" y="1320.815" width="7.2" height="390.231" fill="#000" fill-opacity="0"/><line x1="1135.96" y1="1320.815" x2="1135.96" y2="1711.046" style="stroke:#181818;stroke-width:0.45;stroke-dasharray:4.5,4.5;"/></g><g><title></title><rect x="1131.46" y="555.282" width="9" height="553.185" fill="#FFF" style="stroke:#181818;stroke-width:0.9;"/></g><g><title>RUST. Manager</title><rect x="1324.723" y="150.545" width="7.2" height="1145.071" fill="#000" fill-opacity="0"/><line x1="1327.873" y1="150.545" x2="1327.873" y2="1295.615" style="stroke:#181818;stroke-width:0.45;stroke-dasharray:4.5,4.5;"/></g><line x1="1327.873" y1="1295.615" x2="1327.873" y2="1320.815" style="stroke:#181818;stroke-width:0.45;stroke-dasharray:0.9,3.6;"/><g><title>RUST. Manager</title><rect x="1324.723" y="1320.815" width="7.2" height="390.231" fill="#000" fill-opacity="0"/><line x1="1327.873" y1="1320.815" x2="1327.873" y2="1711.046" style="stroke:#181818;stroke-width:0.45;stroke-dasharray:4.5,4.5;"/></g><g><title></title><rect x="1323.373" y="652.959" width="9" height="434.173" fill="#FFF" style="stroke:#181818;stroke-width:0.9;"/></g><g><title>PhyLayer .air.</title><rect x="1425.577" y="150.545" width="7.2" height="1145.071" fill="#000" fill-opacity="0"/><line x1="1428.727" y1="150.545" x2="1428.727" y2="1295.615" style="stroke:#181818;stroke-width:0.45;stroke-dasharray:4.5,4.5;"/></g><line x1="1428.727" y1="1295.615" x2="1428.727" y2="1320.815" style="stroke:#181818;stroke-width:0.45;stroke-dasharray:0.9,3.6;"/><g><title>PhyLayer .air.</title><rect x="1425.577" y="1320.815" width="7.2" height="390.231" fill="#000" fill-opacity="0"/><line x1="1428.727" y1="1320.815" x2="1428.727" y2="1711.046" style="stroke:#181818;stroke-width:0.45;stroke-dasharray:4.5,4.5;"/></g><text x="15.514" y="129.692" fill="#000" font-size="12.6" textLength="52.391">HCI Host</text><text x="9" y="146.853" fill="#000" font-size="12.6" textLength="65.419">(TCP client)</text><ellipse cx="44.409" cy="69.872" rx="7.2" ry="7.2" fill="#E2E2F0" style="stroke:#181818;stroke-width:0.45;"/><path d="M44.409,77.072 L44.409,101.372 M32.709,84.272 L56.109,84.272 M44.409,101.372 L32.709,114.872 M44.409,101.372 L56.109,114.872" style="stroke:#181818;stroke-width:0.45;" fill="none"/><text x="195.914" y="112.53" fill="#000" font-size="12.6" textLength="63.819">HCI Socket</text><text x="168.018" y="129.692" fill="#000" font-size="12.6" textLength="119.611">(HciSocketTransport</text><text x="193.167" y="146.853" fill="#000" font-size="12.6" textLength="69.312">/ HciSniffer)</text><path d="M212.073,73.861 L212.073,95.461 M212.073,84.661 L227.373,84.661" style="stroke:#181818;stroke-width:0.45;" fill="none"/><ellipse cx="238.173" cy="84.661" rx="10.8" ry="10.8" fill="#E2E2F0" style="stroke:#181818;stroke-width:0.45;"/><text x="450.164" y="112.53" fill="#000" font-size="12.6" textLength="150.632">CPP: DualModeController</text><text x="471.893" y="129.692" fill="#000" font-size="12.6" textLength="107.175">(BrEdrController +</text><text x="486.956" y="146.853" fill="#000" font-size="12.6" textLength="77.049">LeController)</text><ellipse cx="528.181" cy="84.661" rx="10.8" ry="10.8" fill="#E2E2F0" style="stroke:#181818;stroke-width:0.45;"/><polygon points="524.581,73.861,529.981,69.361,528.181,73.861,529.981,78.361,524.581,73.861" fill="#181818" style="stroke:#181818;stroke-width:0.9;stroke-linejoin:miter;stroke-miterlimit:10;"/><text x="790.714" y="129.692" fill="#000" font-size="12.6" textLength="113.047">CPP: ControllerOps</text><text x="778.712" y="146.853" fill="#000" font-size="12.6" textLength="137.05">(function-pointer table)</text><ellipse cx="849.937" cy="101.822" rx="10.8" ry="10.8" fill="#E2E2F0" style="stroke:#181818;stroke-width:0.45;"/><line x1="839.137" y1="114.422" x2="860.737" y2="114.422" style="stroke:#181818;stroke-width:0.45;"/><text x="1075.559" y="129.692" fill="#000" font-size="12.6" textLength="115.403">RUST: LinkManager</text><text x="1077.272" y="146.853" fill="#000" font-size="12.6" textLength="111.976">(or LinkLayer / llcp)</text><ellipse cx="1135.96" cy="101.822" rx="10.8" ry="10.8" fill="#E2E2F0" style="stroke:#181818;stroke-width:0.45;"/><line x1="1125.16" y1="114.422" x2="1146.76" y2="114.422" style="stroke:#181818;stroke-width:0.45;"/><text x="1279.655" y="112.53" fill="#000" font-size="12.6" textLength="91.035">RUST: Manager</text><text x="1279.019" y="129.692" fill="#000" font-size="12.6" textLength="92.307">(internal packet</text><text x="1290.989" y="146.853" fill="#000" font-size="12.6" textLength="68.367">processing)</text><ellipse cx="1327.873" cy="84.661" rx="10.8" ry="10.8" fill="#E2E2F0" style="stroke:#181818;stroke-width:0.45;"/><line x1="1317.073" y1="97.261" x2="1338.673" y2="97.261" style="stroke:#181818;stroke-width:0.45;"/><text x="1385.726" y="146.853" fill="#000" font-size="12.6" textLength="80.602">PhyLayer (air)</text><path d="M1412.527,100.983 C1412.527,91.983 1428.727,91.983 1428.727,91.983 C1428.727,91.983 1444.927,91.983 1444.927,100.983 L1444.927,124.383 C1444.927,133.383 1428.727,133.383 1428.727,133.383 C1428.727,133.383 1412.527,133.383 1412.527,124.383 L1412.527,100.983" style="stroke:#181818;stroke-width:0.45;" fill="#E2E2F0"/><path d="M1412.527,100.983 C1412.527,109.983 1428.727,109.983 1428.727,109.983 C1428.727,109.983 1444.927,109.983 1444.927,100.983" style="stroke:#181818;stroke-width:0.45;" fill="none"/><text x="15.514" y="1724.516" fill="#000" font-size="12.6" textLength="52.391">HCI Host</text><text x="9" y="1741.677" fill="#000" font-size="12.6" textLength="65.419">(TCP client)</text><ellipse cx="44.409" cy="1753.019" rx="7.2" ry="7.2" fill="#E2E2F0" style="stroke:#181818;stroke-width:0.45;"/><path d="M44.409,1760.219 L44.409,1784.519 M32.709,1767.419 L56.109,1767.419 M44.409,1784.519 L32.709,1798.019 M44.409,1784.519 L56.109,1798.019" style="stroke:#181818;stroke-width:0.45;" fill="none"/><text x="195.914" y="1724.516" fill="#000" font-size="12.6" textLength="63.819">HCI Socket</text><text x="168.018" y="1741.677" fill="#000" font-size="12.6" textLength="119.611">(HciSocketTransport</text><text x="193.167" y="1758.838" fill="#000" font-size="12.6" textLength="69.312">/ HciSniffer)</text><path d="M212.073,1766.13 L212.073,1787.73 M212.073,1776.93 L227.373,1776.93" style="stroke:#181818;stroke-width:0.45;" fill="none"/><ellipse cx="238.173" cy="1776.93" rx="10.8" ry="10.8" fill="#E2E2F0" style="stroke:#181818;stroke-width:0.45;"/><text x="450.164" y="1724.516" fill="#000" font-size="12.6" textLength="150.632">CPP: DualModeController</text><text x="471.893" y="1741.677" fill="#000" font-size="12.6" textLength="107.175">(BrEdrController +</text><text x="486.956" y="1758.838" fill="#000" font-size="12.6" textLength="77.049">LeController)</text><ellipse cx="528.181" cy="1776.93" rx="10.8" ry="10.8" fill="#E2E2F0" style="stroke:#181818;stroke-width:0.45;"/><polygon points="524.581,1766.13,529.981,1761.63,528.181,1766.13,529.981,1770.63,524.581,1766.13" fill="#181818" style="stroke:#181818;stroke-width:0.9;stroke-linejoin:miter;stroke-miterlimit:10;"/><text x="790.714" y="1724.516" fill="#000" font-size="12.6" textLength="113.047">CPP: ControllerOps</text><text x="778.712" y="1741.677" fill="#000" font-size="12.6" textLength="137.05">(function-pointer table)</text><ellipse cx="849.937" cy="1759.769" rx="10.8" ry="10.8" fill="#E2E2F0" style="stroke:#181818;stroke-width:0.45;"/><line x1="839.137" y1="1772.369" x2="860.737" y2="1772.369" style="stroke:#181818;stroke-width:0.45;"/><text x="1075.559" y="1724.516" fill="#000" font-size="12.6" textLength="115.403">RUST: LinkManager</text><text x="1077.272" y="1741.677" fill="#000" font-size="12.6" textLength="111.976">(or LinkLayer / llcp)</text><ellipse cx="1135.96" cy="1759.769" rx="10.8" ry="10.8" fill="#E2E2F0" style="stroke:#181818;stroke-width:0.45;"/><line x1="1125.16" y1="1772.369" x2="1146.76" y2="1772.369" style="stroke:#181818;stroke-width:0.45;"/><text x="1279.655" y="1724.516" fill="#000" font-size="12.6" textLength="91.035">RUST: Manager</text><text x="1279.019" y="1741.677" fill="#000" font-size="12.6" textLength="92.307">(internal packet</text><text x="1290.989" y="1758.838" fill="#000" font-size="12.6" textLength="68.367">processing)</text><ellipse cx="1327.873" cy="1776.93" rx="10.8" ry="10.8" fill="#E2E2F0" style="stroke:#181818;stroke-width:0.45;"/><line x1="1317.073" y1="1789.53" x2="1338.673" y2="1789.53" style="stroke:#181818;stroke-width:0.45;"/><text x="1385.726" y="1724.516" fill="#000" font-size="12.6" textLength="80.602">PhyLayer (air)</text><path d="M1412.527,1737.208 C1412.527,1728.208 1428.727,1728.208 1428.727,1728.208 C1428.727,1728.208 1444.927,1728.208 1444.927,1737.208 L1444.927,1760.608 C1444.927,1769.608 1428.727,1769.608 1428.727,1769.608 C1428.727,1769.608 1412.527,1769.608 1412.527,1760.608 L1412.527,1737.208" style="stroke:#181818;stroke-width:0.45;" fill="#E2E2F0"/><path d="M1412.527,1737.208 C1412.527,1746.208 1428.727,1746.208 1428.727,1746.208 C1428.727,1746.208 1444.927,1746.208 1444.927,1737.208" style="stroke:#181818;stroke-width:0.45;" fill="none"/><path d="M532.681,162.245 L532.681,314.345 L880.081,314.345 L880.081,171.245 L871.081,162.245 L532.681,162.245" style="stroke:#181818;stroke-width:0.45;" fill="#FEFFDD"/><path d="M871.081,162.245 L871.081,171.245 L880.081,171.245 L871.081,162.245" style="stroke:#181818;stroke-width:0.45;" fill="#FEFFDD"/><text x="538.081" y="179.252" fill="#000" font-size="11.7" textLength="281.186">In C++ there is no separate "Rust controller" object.</text><text x="538.081" y="195.187" fill="#000" font-size="11.7" textLength="322.955">The Rust code is a pure-library state machine embedded in</text><text x="538.081" y="211.123" fill="#000" font-size="11.7" textLength="216.041">the C++ DualModeController. There are</text><text x="757.163" y="211.123" fill="#000" font-size="11.7" textLength="22.406" font-weight="700">two</text><text x="782.611" y="211.123" fill="#000" font-size="11.7" textLength="54.873">FFI layers:</text><text x="538.081" y="227.058" fill="#000" font-size="11.7"> </text><text x="538.081" y="242.993" fill="#000" font-size="11.7" textLength="292.664">(A) "outer" C ABI   = the C++ controller calls INTO Rust</text><text x="550.249" y="258.929" fill="#000" font-size="11.7" textLength="317.023">(ffi_controller_receive_* and link_manager_*/link_layer_*).</text><text x="538.081" y="274.864" fill="#000" font-size="11.7"> </text><text x="538.081" y="290.8" fill="#000" font-size="11.7" textLength="322.92">(B) "inner" callbacks = Rust calls BACK into C++ through the</text><text x="550.249" y="306.735" fill="#000" font-size="11.7" textLength="289.564">#[repr(C)] `ControllerOps` struct of function pointers.</text><rect x="9" y="338.831" width="1646.99" height="2.7" fill="#EEE" style="stroke:#EEE;stroke-width:0.9;"/><line x1="9" y1="338.831" x2="1655.99" y2="338.831" style="stroke:#000;stroke-width:0.9;"/><line x1="9" y1="341.531" x2="1655.99" y2="341.531" style="stroke:#000;stroke-width:0.9;"/><rect x="669.438" y="328.163" width="326.113" height="23.135" fill="#EEE" style="stroke:#000;stroke-width:1.8;"/><text x="674.838" y="344.271" fill="#000" font-size="11.7" textLength="310.471" font-weight="700">1. HCI command enters the controller (C++ host path)</text><polygon points="219.723,378.034,228.723,381.634,219.723,385.234,223.323,381.634" fill="#181818" style="stroke:#181818;stroke-width:0.9;stroke-linejoin:miter;stroke-miterlimit:10;"/><line x1="44.409" y1="381.634" x2="225.123" y2="381.634" style="stroke:#181818;stroke-width:0.9;"/><text x="50.709" y="376.406" fill="#000" font-size="11.7" textLength="164.514">H4 frame (CMD/ACL/SCO/ISO)</text><polygon points="512.881,406.569,521.881,410.169,512.881,413.769,516.481,410.169" fill="#181818" style="stroke:#181818;stroke-width:0.9;stroke-linejoin:miter;stroke-miterlimit:10;"/><line x1="230.523" y1="410.169" x2="518.281" y2="410.169" style="stroke:#181818;stroke-width:0.9;"/><text x="236.823" y="404.941" fill="#000" font-size="11.7" textLength="271.557">ffi_controller_receive_hci(controller, idc, data, len)</text><line x1="532.681" y1="470.576" x2="570.481" y2="470.576" style="stroke:#181818;stroke-width:0.9;"/><line x1="570.481" y1="470.576" x2="570.481" y2="482.276" style="stroke:#181818;stroke-width:0.9;"/><line x1="533.581" y1="482.276" x2="570.481" y2="482.276" style="stroke:#181818;stroke-width:0.9;"/><polygon points="542.581,478.676,533.581,482.276,542.581,485.876,538.981,482.276" fill="#181818" style="stroke:#181818;stroke-width:0.9;stroke-linejoin:miter;stroke-miterlimit:10;"/><text x="538.981" y="433.477" fill="#000" font-size="11.7" textLength="205.768">reinterprets as DualModeController*,</text><text x="538.981" y="449.412" fill="#000" font-size="11.7" textLength="167.275">wraps bytes, dispatches on idc</text><text x="538.981" y="465.348" fill="#000" font-size="11.7" textLength="304.657">(HandleCommand / HandleAcl / HandleSco / HandleIso)</text><path d="M854.437,421.869 L854.437,446.169 L1131.637,446.169 L1131.637,430.869 L1122.637,421.869 L854.437,421.869" style="stroke:#181818;stroke-width:0.45;" fill="#FEFFDD"/><path d="M1122.637,421.869 L1122.637,430.869 L1131.637,430.869 L1122.637,421.869" style="stroke:#181818;stroke-width:0.45;" fill="#FEFFDD"/><text x="859.837" y="438.877" fill="#000" font-size="11.7" textLength="258.746">idc enum: CMD=1, ACL=2, SCO=3, EVT=4, ISO=5</text><polygon points="834.637,507.211,843.637,510.811,834.637,514.411,838.237,510.811" fill="#181818" style="stroke:#181818;stroke-width:0.9;stroke-linejoin:miter;stroke-miterlimit:10;"/><line x1="532.681" y1="510.811" x2="840.037" y2="510.811" style="stroke:#181818;stroke-width:0.9;"/><text x="538.981" y="505.583" fill="#000" font-size="11.7" textLength="170.317">(borrows controller_ops_ table)</text><polygon points="1120.66,551.682,1129.66,555.282,1120.66,558.882,1124.26,555.282" fill="#181818" style="stroke:#181818;stroke-width:0.9;stroke-linejoin:miter;stroke-miterlimit:10;"/><line x1="532.681" y1="555.282" x2="1126.06" y2="555.282" style="stroke:#181818;stroke-width:0.9;"/><text x="538.981" y="534.118" fill="#000" font-size="11.7" textLength="209.489">link_manager_ingest_hci(lm, data, len)</text><text x="548.107" y="550.054" fill="#000" font-size="11.7" textLength="193.577">or link_layer_ingest_hci(ll, data, len)</text><path d="M1144.96,522.511 L1144.96,610.711 L1457.26,610.711 L1457.26,531.511 L1448.26,522.511 L1144.96,522.511" style="stroke:#181818;stroke-width:0.45;" fill="#FEFFDD"/><path d="M1448.26,522.511 L1448.26,531.511 L1457.26,531.511 L1448.26,522.511" style="stroke:#181818;stroke-width:0.45;" fill="#FEFFDD"/><text x="1150.36" y="539.518" fill="#000" font-size="11.7" textLength="293.752">These are #[unsafe(no_mangle)] pub extern "C" fns in</text><text x="1150.36" y="555.454" fill="#000" font-size="11.7" textLength="106.903">rust/src/ffi.rs. They:</text><text x="1150.36" y="571.389" fill="#000" font-size="11.7" textLength="244.729">- Rc::from_raw() to recover the Arc/Rc handle</text><text x="1150.36" y="587.325" fill="#000" font-size="11.7" textLength="254.803">- decode the HCI command from the byte slice</text><text x="1150.36" y="603.26" fill="#000" font-size="11.7" textLength="261.566">- call lm.ingest_hci(packet) / ll.ingest_hci(packet)</text><polygon points="1312.573,649.359,1321.573,652.959,1312.573,656.559,1316.173,652.959" fill="#181818" style="stroke:#181818;stroke-width:0.9;stroke-linejoin:miter;stroke-miterlimit:10;"/><line x1="1140.46" y1="652.959" x2="1317.973" y2="652.959" style="stroke:#181818;stroke-width:0.9;"/><text x="1146.76" y="631.796" fill="#000" font-size="11.7" textLength="165.813">decode_full() -> hci::Command</text><text x="1146.76" y="647.731" fill="#000" font-size="11.7" textLength="141.196">state-machine processing</text><polygon points="864.337,693.83,855.337,697.43,864.337,701.03,860.737,697.43" fill="#181818" style="stroke:#181818;stroke-width:0.9;stroke-linejoin:miter;stroke-miterlimit:10;"/><line x1="858.937" y1="697.43" x2="1322.473" y2="697.43" style="stroke:#181818;stroke-width:0.9;"/><text x="869.737" y="676.266" fill="#000" font-size="11.7" textLength="264.502">ops.get_le_features() / get_extended_features() /</text><text x="869.737" y="692.202" fill="#000" font-size="11.7" textLength="215.959">get_handle(addr) / get_address(handle)</text><path d="M1336.873,664.659 L1336.873,721.359 L1650.973,721.359 L1650.973,673.659 L1641.973,664.659 L1336.873,664.659" style="stroke:#181818;stroke-width:0.45;" fill="#FEFFDD"/><path d="M1641.973,664.659 L1641.973,673.659 L1650.973,673.659 L1641.973,664.659" style="stroke:#181818;stroke-width:0.45;" fill="#FEFFDD"/><text x="1342.273" y="681.666" fill="#000" font-size="11.7" textLength="287.61">ControllerOps is #[repr(C)] { user_pointer, fn ptrs... }.</text><text x="1342.273" y="697.602" fill="#000" font-size="11.7" textLength="295.718">Calling one of these calls through a C function pointer</text><text x="1342.273" y="713.537" fill="#000" font-size="11.7" textLength="213.689">with `self.user_pointer` as the user arg.</text><polygon points="542.581,759.636,533.581,763.236,542.581,766.836,538.981,763.236" fill="#181818" style="stroke:#181818;stroke-width:0.9;stroke-linejoin:miter;stroke-miterlimit:10;"/><line x1="537.181" y1="763.236" x2="844.537" y2="763.236" style="stroke:#181818;stroke-width:0.9;"/><text x="547.981" y="742.073" fill="#000" font-size="11.7" textLength="257.108">user_pointer = BrEdrController*/LeController*,</text><text x="547.981" y="758.008" fill="#000" font-size="11.7" textLength="251.503">C++ lambda reads connections_, features, etc.</text><polygon points="834.637,804.107,843.637,807.707,834.637,811.307,838.237,807.707" fill="#181818" style="stroke:#181818;stroke-width:0.9;stroke-linejoin:miter;stroke-miterlimit:10;"/><line x1="532.681" y1="807.707" x2="840.037" y2="807.707" style="stroke:#181818;stroke-width:0.9;stroke-dasharray:1.8,1.8;"/><text x="538.981" y="786.543" fill="#000" font-size="11.7" textLength="188.358">return value (u16/u64/bool/[u8;6]/</text><text x="538.981" y="802.479" fill="#000" font-size="11.7" textLength="117.831">periodic_enabled/sid)</text><polygon points="1312.573,832.642,1321.573,836.242,1312.573,839.842,1316.173,836.242" fill="#181818" style="stroke:#181818;stroke-width:0.9;stroke-linejoin:miter;stroke-miterlimit:10;"/><line x1="854.437" y1="836.242" x2="1317.973" y2="836.242" style="stroke:#181818;stroke-width:0.9;stroke-dasharray:1.8,1.8;"/><text x="860.737" y="831.014" fill="#000" font-size="11.7" textLength="29.355">value</text><polygon points="864.337,861.178,855.337,864.778,864.337,868.378,860.737,864.778" fill="#181818" style="stroke:#181818;stroke-width:0.9;stroke-linejoin:miter;stroke-miterlimit:10;"/><line x1="858.937" y1="864.778" x2="1322.473" y2="864.778" style="stroke:#181818;stroke-width:0.9;"/><text x="869.737" y="859.55" fill="#000" font-size="11.7" textLength="178.893">ops.send_hci_event(event_bytes)</text><path d="M1336.873,847.942 L1336.873,904.642 L1587.073,904.642 L1587.073,856.942 L1578.073,847.942 L1336.873,847.942" style="stroke:#181818;stroke-width:0.45;" fill="#FEFFDD"/><path d="M1578.073,847.942 L1578.073,856.942 L1587.073,856.942 L1578.073,847.942" style="stroke:#181818;stroke-width:0.45;" fill="#FEFFDD"/><text x="1342.273" y="864.95" fill="#000" font-size="11.7" textLength="184.965">Inner callback again. C++ lambda:</text><text x="1342.273" y="880.885" fill="#000" font-size="11.7" textLength="231.543">EventBuilder::Create(event_code, payload)</text><text x="1342.273" y="896.821" fill="#000" font-size="11.7" textLength="161.53">-> controller->send_event_(...)</text><polygon points="542.581,926.984,533.581,930.584,542.581,934.184,538.981,930.584" fill="#181818" style="stroke:#181818;stroke-width:0.9;stroke-linejoin:miter;stroke-miterlimit:10;"/><line x1="537.181" y1="930.584" x2="844.537" y2="930.584" style="stroke:#181818;stroke-width:0.9;"/><text x="547.981" y="925.356" fill="#000" font-size="11.7" textLength="183.421">send_event_(std::vector&lt;uint8_t>)</text><polygon points="54.309,987.39,45.309,990.99,54.309,994.59,50.709,990.99" fill="#181818" style="stroke:#181818;stroke-width:0.9;stroke-linejoin:miter;stroke-miterlimit:10;"/><line x1="48.909" y1="990.99" x2="522.781" y2="990.99" style="stroke:#181818;stroke-width:0.9;"/><text x="59.709" y="953.891" fill="#000" font-size="11.7" textLength="181.502">RegisterEventChannel callback -></text><text x="59.709" y="969.827" fill="#000" font-size="11.7" textLength="199.263">ffi_controller_new's send_hci(cookie,</text><text x="59.709" y="985.762" fill="#000" font-size="11.7" textLength="198.151">Idc::EVT, data, len) -> H4 over socket</text><polygon points="864.337,1031.861,855.337,1035.461,864.337,1039.061,860.737,1035.461" fill="#181818" style="stroke:#181818;stroke-width:0.9;stroke-linejoin:miter;stroke-miterlimit:10;"/><line x1="858.937" y1="1035.461" x2="1322.473" y2="1035.461" style="stroke:#181818;stroke-width:0.9;"/><text x="869.737" y="1014.298" fill="#000" font-size="11.7" textLength="216.766">ops.send_llcp_packet(handle, pdu)   (LE)</text><text x="878.863" y="1030.233" fill="#000" font-size="11.7" textLength="242.752">ops.send_lmp_packet(to, pdu)          (BR/EDR)</text><polygon points="542.581,1076.332,533.581,1079.932,542.581,1083.532,538.981,1079.932" fill="#181818" style="stroke:#181818;stroke-width:0.9;stroke-linejoin:miter;stroke-miterlimit:10;"/><line x1="537.181" y1="1079.932" x2="844.537" y2="1079.932" style="stroke:#181818;stroke-width:0.9;"/><text x="547.981" y="1058.768" fill="#000" font-size="11.7" textLength="256.616">SendLeLinkLayerPacket(LlcpBuilder::Create(...))</text><text x="557.107" y="1074.704" fill="#000" font-size="11.7" textLength="261.144">or SendLinkLayerPacket(LmpBuilder::Create(...))</text><polygon points="864.337,1104.867,855.337,1108.467,864.337,1112.067,860.737,1108.467" fill="#181818" style="stroke:#181818;stroke-width:0.9;stroke-linejoin:miter;stroke-miterlimit:10;"/><line x1="858.937" y1="1108.467" x2="1130.56" y2="1108.467" style="stroke:#181818;stroke-width:0.9;stroke-dasharray:1.8,1.8;"/><text x="869.737" y="1103.239" fill="#000" font-size="11.7" textLength="255.423">(impl returns to caller; object stays alive via Rc)</text><polygon points="1417.927,1149.338,1426.927,1152.938,1417.927,1156.538,1421.527,1152.938" fill="#181818" style="stroke:#181818;stroke-width:0.9;stroke-linejoin:miter;stroke-miterlimit:10;"/><line x1="532.681" y1="1152.938" x2="1423.327" y2="1152.938" style="stroke:#181818;stroke-width:0.9;"/><text x="538.981" y="1131.775" fill="#000" font-size="11.7" textLength="299.064">RegisterLinkLayerChannel send_ll(data, phy, tx_power)</text><text x="538.981" y="1147.71" fill="#000" font-size="11.7" textLength="269.381">-> PhyDevice::Send -> PhyLayer::Send (broadcast)</text><rect x="9" y="1179.806" width="1646.99" height="2.7" fill="#EEE" style="stroke:#EEE;stroke-width:0.9;"/><line x1="9" y1="1179.806" x2="1655.99" y2="1179.806" style="stroke:#000;stroke-width:0.9;"/><line x1="9" y1="1182.506" x2="1655.99" y2="1182.506" style="stroke:#000;stroke-width:0.9;"/><rect x="745.635" y="1169.138" width="173.721" height="23.135" fill="#EEE" style="stroke:#000;stroke-width:1.8;"/><text x="751.035" y="1185.245" fill="#000" font-size="11.7" textLength="158.079" font-weight="700">2. Create / destroy lifecycle</text><polygon points="1125.16,1234.944,1134.16,1238.544,1125.16,1242.144,1128.76,1238.544" fill="#181818" style="stroke:#181818;stroke-width:0.9;stroke-linejoin:miter;stroke-miterlimit:10;"/><line x1="528.181" y1="1238.544" x2="1130.56" y2="1238.544" style="stroke:#181818;stroke-width:0.9;"/><text x="534.481" y="1217.381" fill="#000" font-size="11.7" textLength="269.814">link_manager_create(ops) / link_layer_create(ops)</text><text x="543.607" y="1233.316" fill="#000" font-size="11.7" textLength="185.831">-> Rc::into_raw(Rc::new(Manager))</text><path d="M1140.46,1205.774 L1140.46,1262.474 L1411.36,1262.474 L1411.36,1214.774 L1402.36,1205.774 L1140.46,1205.774" style="stroke:#181818;stroke-width:0.45;" fill="#FEFFDD"/><path d="M1402.36,1205.774 L1402.36,1214.774 L1411.36,1214.774 L1402.36,1205.774" style="stroke:#181818;stroke-width:0.45;" fill="#FEFFDD"/><text x="1145.86" y="1222.781" fill="#000" font-size="11.7" textLength="252.592">Called from the LeController / BrEdrController</text><text x="1145.86" y="1238.716" fill="#000" font-size="11.7" textLength="245.653">constructor. controller_ops_ is filled with C++</text><text x="1145.86" y="1254.652" fill="#000" font-size="11.7" textLength="182.918">lambdas and .user_pointer = this.</text><polygon points="538.081,1284.815,529.081,1288.415,538.081,1292.015,534.481,1288.415" fill="#181818" style="stroke:#181818;stroke-width:0.9;stroke-linejoin:miter;stroke-miterlimit:10;"/><line x1="532.681" y1="1288.415" x2="1135.06" y2="1288.415" style="stroke:#181818;stroke-width:0.9;stroke-dasharray:1.8,1.8;"/><text x="543.481" y="1283.187" fill="#000" font-size="11.7" textLength="263.812">*const LinkManager / *const LinkLayer (raw ptr)</text><polygon points="1125.16,1354.486,1134.16,1358.086,1125.16,1361.686,1128.76,1358.086" fill="#181818" style="stroke:#181818;stroke-width:0.9;stroke-linejoin:miter;stroke-miterlimit:10;"/><line x1="528.181" y1="1358.086" x2="1130.56" y2="1358.086" style="stroke:#181818;stroke-width:0.9;"/><text x="534.481" y="1336.923" fill="#000" font-size="11.7" textLength="264.186">link_manager_destroy(lm) / link_layer_destroy(ll)</text><text x="543.607" y="1352.858" fill="#000" font-size="11.7" textLength="143.232">-> Rc::from_raw (drops Rc)</text><path d="M1140.46,1325.315 L1140.46,1382.015 L1437.46,1382.015 L1437.46,1334.315 L1428.46,1325.315 L1140.46,1325.315" style="stroke:#181818;stroke-width:0.45;" fill="#FEFFDD"/><path d="M1428.46,1325.315 L1428.46,1334.315 L1437.46,1334.315 L1428.46,1325.315" style="stroke:#181818;stroke-width:0.45;" fill="#FEFFDD"/><text x="1145.86" y="1342.323" fill="#000" font-size="11.7" textLength="223.868">RAII: the controllers hold the pointer in a</text><text x="1145.86" y="1358.258" fill="#000" font-size="11.7" textLength="260.314">std::unique_ptr with a custom deleter set to the</text><ellipse cx="1150.81" cy="1370.871" rx="2.25" ry="2.25" fill="#000"/><text x="1156.66" y="1374.193" fill="#000" font-size="11.7" textLength="267.848">_destroy FFI function, so it is freed automatically.</text><rect x="9" y="1406.289" width="1646.99" height="2.7" fill="#EEE" style="stroke:#EEE;stroke-width:0.9;"/><line x1="9" y1="1406.289" x2="1655.99" y2="1406.289" style="stroke:#000;stroke-width:0.9;"/><line x1="9" y1="1408.989" x2="1655.99" y2="1408.989" style="stroke:#000;stroke-width:0.9;"/><rect x="695.898" y="1395.621" width="273.194" height="23.135" fill="#EEE" style="stroke:#000;stroke-width:1.8;"/><text x="701.298" y="1411.729" fill="#000" font-size="11.7" textLength="257.552" font-weight="700">3. Link registration (add/remove a peer link)</text><polygon points="1125.16,1477.363,1134.16,1480.963,1125.16,1484.563,1128.76,1480.963" fill="#181818" style="stroke:#181818;stroke-width:0.9;stroke-linejoin:miter;stroke-miterlimit:10;"/><line x1="528.181" y1="1480.963" x2="1130.56" y2="1480.963" style="stroke:#181818;stroke-width:0.9;"/><text x="534.481" y="1443.864" fill="#000" font-size="11.7" textLength="249.713">link_layer_add_link(ll, handle, peer_addr, role)</text><text x="543.607" y="1459.8" fill="#000" font-size="11.7" textLength="224.745">link_layer_remove_link(ll, handle, reason)</text><text x="543.607" y="1475.735" fill="#000" font-size="11.7" textLength="282.462">link_manager_add_link / link_manager_remove_link</text><polygon points="538.081,1505.899,529.081,1509.499,538.081,1513.099,534.481,1509.499" fill="#181818" style="stroke:#181818;stroke-width:0.9;stroke-linejoin:miter;stroke-miterlimit:10;"/><line x1="532.681" y1="1509.499" x2="1135.06" y2="1509.499" style="stroke:#181818;stroke-width:0.9;stroke-dasharray:1.8,1.8;"/><text x="543.481" y="1504.27" fill="#000" font-size="11.7" textLength="47.759">bool (ok)</text><path d="M1140.46,1492.663 L1140.46,1533.163 L1432.96,1533.163 L1432.96,1501.663 L1423.96,1492.663 L1140.46,1492.663" style="stroke:#181818;stroke-width:0.45;" fill="#FEFFDD"/><path d="M1423.96,1492.663 L1423.96,1501.663 L1432.96,1501.663 L1423.96,1492.663" style="stroke:#181818;stroke-width:0.45;" fill="#FEFFDD"/><text x="1145.86" y="1509.67" fill="#000" font-size="11.7" textLength="273.616">These add an internal Link/Connection in the Rust</text><text x="1145.86" y="1525.606" fill="#000" font-size="11.7" textLength="259.693">manager keyed by peer address or ACL handle.</text><rect x="9" y="1557.702" width="1646.99" height="2.7" fill="#EEE" style="stroke:#EEE;stroke-width:0.9;"/><line x1="9" y1="1557.702" x2="1655.99" y2="1557.702" style="stroke:#000;stroke-width:0.9;"/><line x1="9" y1="1560.402" x2="1655.99" y2="1560.402" style="stroke:#000;stroke-width:0.9;"/><rect x="718.918" y="1547.034" width="227.155" height="23.135" fill="#EEE" style="stroke:#000;stroke-width:1.8;"/><text x="724.318" y="1563.141" fill="#000" font-size="11.7" textLength="211.513" font-weight="700">4. Timer tick (each scheduler period)</text><polygon points="1125.16,1596.905,1134.16,1600.505,1125.16,1604.105,1128.76,1600.505" fill="#181818" style="stroke:#181818;stroke-width:0.9;stroke-linejoin:miter;stroke-miterlimit:10;"/><line x1="528.181" y1="1600.505" x2="1130.56" y2="1600.505" style="stroke:#181818;stroke-width:0.9;"/><text x="534.481" y="1595.277" fill="#000" font-size="11.7" textLength="219.399">link_manager_tick(lm) / link_layer_tick(ll)</text><path d="M1140.46,1583.669 L1140.46,1640.369 L1449.16,1640.369 L1449.16,1592.669 L1440.16,1583.669 L1140.46,1583.669" style="stroke:#181818;stroke-width:0.45;" fill="#FEFFDD"/><path d="M1440.16,1583.669 L1440.16,1592.669 L1449.16,1592.669 L1440.16,1583.669" style="stroke:#181818;stroke-width:0.45;" fill="#FEFFDD"/><text x="1145.86" y="1600.677" fill="#000" font-size="11.7" textLength="290.23">Driven by DualModeController::Tick(), which is driven</text><text x="1145.86" y="1616.612" fill="#000" font-size="11.7" textLength="288.534">by the AsyncManager's periodic timer. Rust runs any</text><text x="1145.86" y="1632.548" fill="#000" font-size="11.7" textLength="234.492">due Link Manager / Link Layer procedures.</text><polygon points="1317.073,1662.711,1326.073,1666.311,1317.073,1669.911,1320.673,1666.311" fill="#181818" style="stroke:#181818;stroke-width:0.9;stroke-linejoin:miter;stroke-miterlimit:10;"/><line x1="1135.96" y1="1666.311" x2="1322.473" y2="1666.311" style="stroke:#181818;stroke-width:0.9;"/><text x="1142.26" y="1661.083" fill="#000" font-size="11.7" textLength="133.825">run pending procedures</text><polygon points="859.837,1691.246,850.837,1694.846,859.837,1698.446,856.237,1694.846" fill="#181818" style="stroke:#181818;stroke-width:0.9;stroke-linejoin:miter;stroke-miterlimit:10;"/><line x1="854.437" y1="1694.846" x2="1326.973" y2="1694.846" style="stroke:#181818;stroke-width:0.9;"/><text x="865.237" y="1689.618" fill="#000" font-size="11.7" textLength="240.049">(may emit HCI events / LL packets as above)</text><?plantuml-src hLZlSnkt4VtElsAhVCWTJP5rudhII-KPYN9gJgXAGwcPwLWU6hm3ILHt00lSIM6J_kzz2zmlKbRoeUMCQHuE2opUldsxq1zsLcmAGPMJFqbRgbJaipKPFIXLcKiwMHXJJeKMUK8Vp1DDNxsYr1H5fJ6pb8wULBcbSYjfKRcI2fDLEKQZ7twOqSggR2FZUurHcKzIeqjhybpQoNgjnjjVnsbAz8h8mdBYREg7hVDZqtRozSuHdCfN8drm9mE7tvB-EFxpOF0rdVxF7ono8_ZOQYTqwVu_QugqD9PEFandmCoLzpgwczvGcYkfo_Y4XACFrxTtWvMfT2RiFioyDUc3vBaVKXL-trcXtSvO34w8HxLQhwKDAznUJtySr93IoVJc9g7BIkHNWBh33gjTsFUPxKRerRsUzsQ4nQPtY_a0pgboNwzrW3-MMLSwBPNHfpkZT8brIh7APR2-lhbjZHT_lxrBQAxqmnL8i_4k00iUc8izx2QKv-ak6FBa8ylEocy3tj5E161srgJIEQKtdVNLNnU3JC0NuS3Lc-q-R189LP_iviC_1WDjIabMRRObcNKuBD5CUpA3kbQISgGDERaJ5go6CqpcZh0dP5R_b6avXjrTm_KKKBEXe5rbvMckLfQ3wKfUeH3fLcb9ibZ9B9CPAGrRpXFUz7canhmk717uDnoMJsOu9CwXdC_ZaW6Ce_EOJanLiZjJEh-O4T5PksJdhCyMHxE_tLrxHs7AdmZPjUncBQrCfNgKoo49dL6E02sB0FvoEF6FVk_bC1xxtI-mkzAQTs_J4Vi7AFoE5-VJ7t7EqjJ0MbDjl3RK7dprqSgTZQRn9_fymA_F0CrMgOzEGpIgYUR6O4X67CB1uEoCNe-9iuKrYFsMVev7eOT0n0viaNeWJxcDwUniCE2KezDtFd6WPMzeRKKXCVNgSd8-dKzkfzUJsUrrFE09F95vaj0Bg6rJ5NN38r9PEY9cueXogMEM0FN8HF1iuwzkIIlzoNPMbeuv-fmDmz6zVh82ohVQGsInid8uIRg5j08QRCOwWVFdC0f0G27yytcQjxzlKzF-dZaJzn818S4gWAygaEnNbsUlHmGKphuP4O0u-tP4xt-wEtip8a1ozgTU28907iG01xFCoumGUiy7JlScbVty5W5eHKBHobXhdbmlP4kpSyjQL3hmM5aQow0F1po554XN-bZaHH_-UmswGNPwDExFpGz2TG0Aij25BFpgOwMTMCj86zvm0yS-8TDN97zcOO9Edj1Qkv3OHoNCP_C-mOjJMgH9ihQcM5hn5CKC4JXa7bb2GTfps2nIsleO-VcPzCB2B_iWyn9-a1b1BbTfcCwfHtanxfql26RifVOBurqmMvoz4FDN0pHqDQazMQwhF8VZU8D5agGctBtsGdVQ25sdpeVBia8tfF7Sq59cB9gF8gyas9plAMHhdhaa78Ur9T2cNg5b3bWotiXocSCjAKhehelue3p6ST6GseCtzvfV1NWZaMMscSs_uMyKNXsnuB3xWCRtfEiNRfNiifQd4JX0kn8X7u_fFrmVfZW1KC399EjPwGaL1BAHH07zFjOvMFfMwhEJ-NhSt-8pQmH7dWT1pKrF4G5Afojz8oZpKUKVJkP72iEmvw9OPGAK59bFHoszLsw9WzKmZaYMwRZEmoOGqAuAIH2265MltqwgjsycAsFooSVgk-_VVWBoEscLoLIwb9hpEfiubSN1vJxD_1g7706PiYg5e0Zjaq0-GkSvTHoV7Fyp75xVNsG9psJMBxrjvB-NNasFOZtZcjQMD18ReVIOEcmuYz-pzKMbyanQP03GAcMz9AV826Lcdnk1qn4xqSdQwJllHvWQWIFn2x7hJtDbbYIFafl8lrI8vdVBybtSwY3NiOGMSgCSukmzcuB4MkRT8KxVtUkZmgNbqzUE6bHGkyo3aY31B8C-GUlxakYtUKDUf9nlHLyEptoErdP2ywkRkb7Zy6mCboaE4XgntuaHjuFBO5ed8-3CgfXRbldxMihRoKKxjpJjlFeJNImcxoyNyI6ojx2RoxO1lGdMS-nw750EJriwlDcnKV5bcq4cNzIykyEh4I9WbSZLlr79LUbRBpwqOzHssts7LPTgaIfsUPrmVXw7MThlwvwK6yuz13L7MqAFIg3WF7Ee_zolgUYEEogrfsteL8Sd2iI0ToCgVuR0FE7QSA_PVBk_b8-eH4d2S54OyclK8z7A8YrIuSe3dtnJnDtSDyWq3oGebA5EMRD7qLxBT9y2AsxRVgFyfo4488UlTLsjxxtmuMHpi9nRKr-5-G7v4DKTIdoi_enlh-BsTHCR7Uag391ceO4rwEEFUnfKZxNo2tfzXx308aYBy_4V7-bskLNzfhSbGw3pq6_Mls71fTvWVG72CRainGCGzBSmh457_tI4OViYFy2mwMGeoYoEvybs0DxYV3PBZlfnvwkx7soEgJG9pFPILsdrhqekuMw0I52AX07ucSmbJtP1LS9DOjYuvkz7JHaTGQWueHXjArcQAgmW_DypyltH7UBRSUXGhMS-RdnSXxaxc5XPGFNuIYTbQ1_ZbrWOO8BHaXzzKzdAbmnlq1q001a0x1c5NPxRWRREwDxq9ahDBas8cl7UGiSyuL9CaNduSd-RUUrkhzYCncJQLd-EJlCd7TZKkz63t0FOrJw0KpTGh9MuEDHdE0Bw3HfXLN2hgr2L8WZ0bXnkCQo4ba9_4FzUchFjStw6qVpeU9SMAgZPn-UNgYIvOvjuH4zR1KT0bSnFXnqCV3VkzZgjqmhLicbWu7x1LtIlunRN0e2tXrM6tkVWgZC9Zo47VKUSSGVrB9jxtG-MmpuwuvQnitXMBgD2x4aMO7ZR3pdURbvNNN-H52kmuRdu_nS0?></g></svg>